<?xml version="1.0" encoding="iso-8859-1"?>
<!-- Generator: Adobe Illustrator 19.0.0, SVG Export Plug-In . SVG Version: 6.00 Build 0)  -->
<svg version="1.1" id="Layer_1" xmlns="http://www.w3.org/2000/svg" xmlns:xlink="http://www.w3.org/1999/xlink" x="0px" y="0px"
	 viewBox="0 0 512 512" style="enable-background:new 0 0 512 512;" xml:space="preserve">
<g transform="translate(1 1)">
	<path style="fill:#CCCCCC;" d="M152.6,109.933h204.8c79.36,0,145.067,65.707,145.067,145.067S436.76,400.067,357.4,400.067H152.6
		C73.24,400.067,7.533,335.213,7.533,255S73.24,109.933,152.6,109.933"/>
	<path style="fill:#E2E3E5;" d="M178.2,109.933h153.6c79.36,0,145.067,65.707,145.067,145.067S411.16,400.067,331.8,400.067H178.2
		c-80.213,0-145.067-64.853-145.067-145.067S97.987,109.933,178.2,109.933"/>
	<path style="fill:#E0E0E0;" d="M50.2,255c0-56.32,46.08-102.4,102.4-102.4S255,198.68,255,255s-46.08,102.4-102.4,102.4
		S50.2,311.32,50.2,255"/>
	<path style="fill:#F0F0F0;" d="M50.2,255c0-56.32,40.107-102.4,89.6-102.4s89.6,46.08,89.6,102.4s-40.107,102.4-89.6,102.4
		S50.2,311.32,50.2,255"/>
	<path style="fill:#FFFFFF;" d="M33.133,255L33.133,255c0-79.36,64.853-145.067,145.067-145.067h-25.6
		C73.24,109.933,7.533,175.64,7.533,255S73.24,400.067,152.6,400.067h25.6C97.987,400.067,33.133,335.213,33.133,255"/>
	<g>
		<path style="fill:#B6B6B6;" d="M357.4,408.6H152.6C68.12,408.6-1,339.48-1,255s69.12-153.6,153.6-153.6h204.8
			c84.48,0,153.6,69.12,153.6,153.6S441.88,408.6,357.4,408.6z M152.6,118.467c-75.093,0-136.533,61.44-136.533,136.533
			S77.507,391.533,152.6,391.533h204.8c75.093,0,136.533-61.44,136.533-136.533S432.493,118.467,357.4,118.467H152.6z"/>
		<path style="fill:#B6B6B6;" d="M152.6,365.933C91.16,365.933,41.667,316.44,41.667,255S91.16,144.067,152.6,144.067
			S263.533,193.56,263.533,255S214.04,365.933,152.6,365.933z M152.6,161.133c-52.053,0-93.867,41.813-93.867,93.867
			s41.813,93.867,93.867,93.867s93.867-41.813,93.867-93.867S204.653,161.133,152.6,161.133z"/>
		<path style="fill:#B6B6B6;" d="M348.867,297.667c-2.56,0-4.267-0.853-5.973-2.56l-34.133-34.133
			c-3.413-3.413-3.413-8.533,0-11.947s8.533-3.413,11.947,0l34.133,34.133c3.413,3.413,3.413,8.533,0,11.947
			C353.133,296.813,351.427,297.667,348.867,297.667z"/>
		<path style="fill:#B6B6B6;" d="M348.867,297.667c-2.56,0-4.267-0.853-5.973-2.56c-3.413-3.413-3.413-8.533,0-11.947l68.267-68.267
			c3.413-3.413,8.533-3.413,11.947,0c3.413,3.413,3.413,8.533,0,11.947l-68.267,68.267
			C353.133,296.813,351.427,297.667,348.867,297.667z"/>
	</g>
</g>
<g>
</g>
<g>
</g>
<g>
</g>
<g>
</g>
<g>
</g>
<g>
</g>
<g>
</g>
<g>
</g>
<g>
</g>
<g>
</g>
<g>
</g>
<g>
</g>
<g>
</g>
<g>
</g>
<g>
</g>
</svg>
